{
  "accessors": [
    {
      "bufferView": 2,
      "componentType": 5126,
      "count": 4734,
      "max": [
        571.6829223632813,
        -173.4929656982422,
        613.4383544921875
      ],
      "min": [
        137.18365478515625,
        -381.3681640625,
        175.5636749267578
      ],
      "type": "VEC3"
    },
    {
      "bufferView": 2,
      "byteOffset": 56808,
      "componentType": 5126,
      "count": 4734,
      "max": [
        0.9959572553634644,
        0.997235894203186,
        0.9996448755264282
      ],
      "min": [
        -0.9994693398475647,
        -0.9999685287475586,
        -0.9995758533477783
      ],
      "type": "VEC3"
    },
    {
      "bufferView": 3,
      "componentType": 5126,
      "count": 4734,
      "max": [
        0.9997310042381287,
        0.9999675154685974,
        0.99836266040802,
        1.0
      ],
      "min": [
        -0.9997393488883972,
        -0.9946359992027283,
        -0.9953039884567261,
        -1.0
      ],
      "type": "VEC4"
    },
    {
      "bufferView": 1,
      "componentType": 5126,
      "count": 4734,
      "max": [
        0.9504669904708862,
        0.9900000095367432
      ],
      "min": [
        0.009999999776482582,
        0.009999999776482582
      ],
      "type": "VEC2"
    },
    {
      "bufferView": 0,
      "componentType": 5125,
      "count": 26286,
      "type": "SCALAR"
    },
    {
      "bufferView": 2,
      "byteOffset": 113616,
      "componentType": 5126,
      "count": 5620,
      "max": [
        654.36376953125,
        -143.11830139160156,
        327.30926513671875
      ],
      "min": [
        205.89764404296875,
        -475.14056396484375,
        28.918434143066406
      ],
      "type": "VEC3"
    },
    {
      "bufferView": 2,
      "byteOffset": 181056,
      "componentType": 5126,
      "count": 5620,
      "max": [
        0.9994494915008545,
        0.9996747374534607,
        0.9999643564224243
      ],
      "min": [
        -0.9998235106468201,
        -0.9996112585067749,
        -0.9992969036102295
      ],
      "type": "VEC3"
    },
    {
      "bufferView": 3,
      "byteOffset": 75744,
      "componentType": 5126,
      "count": 5620,
      "max": [
        0.999997079372406,
        0.9998174905776978,
        0.8190249800682068,
        1.0
      ],
      "min": [
        -0.9995054602622986,
        -0.9998322129249573,
        -0.7215452194213867,
        1.0
      ],
      "type": "VEC4"
    },
    {
      "bufferView": 1,
      "byteOffset": 37872,
      "componentType": 5126,
      "count": 5620,
      "max": [
        0.9837579727172852,
        0.9900000095367432
      ],
      "min": [
        0.009999999776482582,
        0.09738899767398834
      ],
      "type": "VEC2"
    },
    {
      "bufferView": 0,
      "byteOffset": 105144,
      "componentType": 5125,
      "count": 33090,
      "type": "SCALAR"
    }
  ],
  "asset": {
    "extras": {
      "author": "amalie.kma (https://sketchfab.com/amalie.kma)",
      "license": "CC-BY-4.0 (http://creativecommons.org/licenses/by/4.0/)",
      "source": "https://sketchfab.com/3d-models/cherry-76e4c9afe41149558c07945a8a60a548",
      "title": "Cherry"
    },
    "generator": "Sketchfab-12.66.0",
    "version": "2.0"
  },
  "bufferViews": [
    {
      "buffer": 0,
      "byteLength": 237504,
      "name": "floatBufferViews",
      "target": 34963
    },
    {
      "buffer": 0,
      "byteLength": 82832,
      "byteOffset": 237504,
      "byteStride": 8,
      "name": "floatBufferViews",
      "target": 34962
    },
    {
      "buffer": 0,
      "byteLength": 248496,
      "byteOffset": 320336,
      "byteStride": 12,
      "name": "floatBufferViews",
      "target": 34962
    },
    {
      "buffer": 0,
      "byteLength": 165664,
      "byteOffset": 568832,
      "byteStride": 16,
      "name": "floatBufferViews",
      "target": 34962
    }
  ],
  "buffers": [
    {
      "byteLength": 734496,
      "uri": "scene.bin"
    }
  ],
  "extensionsRequired": [
    "KHR_materials_pbrSpecularGlossiness"
  ],
  "extensionsUsed": [
    "KHR_materials_pbrSpecularGlossiness"
  ],
  "images": [
    {
      "uri": "textures/Default_diffuse.png"
    },
    {
      "uri": "textures/Default_specularGlossiness.png"
    },
    {
      "uri": "textures/Default_normal.png"
    },
    {
      "uri": "textures/Default_occlusion.png"
    }
  ],
  "materials": [
    {
      "doubleSided": true,
      "extensions": {
        "KHR_materials_pbrSpecularGlossiness": {
          "diffuseFactor": [
            1.0,
            1.0,
            1.0,
            1.0
          ],
          "diffuseTexture": {
            "index": 0
          },
          "glossinessFactor": 1.0,
          "specularFactor": [
            1.0,
            1.0,
            1.0
          ],
          "specularGlossinessTexture": {
            "index": 1
          }
        }
      },
      "name": "Default",
      "normalTexture": {
        "index": 2
      },
      "occlusionTexture": {
        "index": 3
      }
    }
  ],
  "meshes": [
    {
      "name": "Object_0",
      "primitives": [
        {
          "attributes": {
            "NORMAL": 1,
            "POSITION": 0,
            "TANGENT": 2,
            "TEXCOORD_0": 3
          },
          "indices": 4,
          "material": 0,
          "mode": 4
        }
      ]
    },
    {
      "name": "Object_1",
      "primitives": [
        {
          "attributes": {
            "NORMAL": 6,
            "POSITION": 5,
            "TANGENT": 7,
            "TEXCOORD_0": 8
          },
          "indices": 9,
          "material": 0,
          "mode": 4
        }
      ]
    }
  ],
  "nodes": [
    {
      "children": [
        1
      ],
      "matrix": [
        1.0,
        0.0,
        0.0,
        0.0,
        0.0,
        2.220446049250313e-16,
        -1.0,
        0.0,
        0.0,
        1.0,
        2.220446049250313e-16,
        0.0,
        0.0,
        0.0,
        0.0,
        1.0
      ],
      "name": "Sketchfab_model"
    },
    {
      "children": [
        2,
        3
      ],
      "name": "cherry.obj.cleaner.materialmerger.gles"
    },
    {
      "mesh": 0,
      "name": "Object_2"
    },
    {
      "mesh": 1,
      "name": "Object_3"
    }
  ],
  "samplers": [
    {
      "magFilter": 9729,
      "minFilter": 9987,
      "wrapS": 10497,
      "wrapT": 10497
    }
  ],
  "scene": 0,
  "scenes": [
    {
      "name": "Sketchfab_Scene",
      "nodes": [
        0
      ]
    }
  ],
  "textures": [
    {
      "sampler": 0,
      "source": 0
    },
    {
      "sampler": 0,
      "source": 1
    },
    {
      "sampler": 0,
      "source": 2
    },
    {
      "sampler": 0,
      "source": 3
    }
  ]
}
