{
  "accessors": [
    {
      "bufferView": 2,
      "componentType": 5126,
      "count": 230,
      "max": [
        7.27945613861084,
        6.167459011077881,
        2.489439010620117
      ],
      "min": [
        -7.454730033874512,
        -8.566729545593262,
        2.008368968963623
      ],
      "type": "VEC3"
    },
    {
      "bufferView": 2,
      "byteOffset": 2760,
      "componentType": 5126,
      "count": 230,
      "max": [
        0.6309980750083923,
        0.6309900879859924,
        1.0
      ],
      "min": [
        -0.6309840083122253,
        -0.6309900879859924,
        0.771912157535553
      ],
      "type": "VEC3"
    },
    {
      "bufferView": 1,
      "componentType": 5126,
      "count": 230,
      "max": [
        1.0,
        1.0
      ],
      "min": [
        0.0,
        0.5
      ],
      "type": "VEC2"
    },
    {
      "bufferView": 0,
      "componentType": 5125,
      "count": 1140,
      "type": "SCALAR"
    },
    {
      "bufferView": 2,
      "byteOffset": 5520,
      "componentType": 5126,
      "count": 181,
      "max": [
        7.126988887786865,
        6.015100955963135,
        1.4864599704742432
      ],
      "min": [
        -7.302262783050537,
        -8.4143705368042,
        1.4780219793319702
      ],
      "type": "VEC3"
    },
    {
      "bufferView": 2,
      "byteOffset": 7692,
      "componentType": 5126,
      "count": 181,
      "max": [
        0.15261991322040558,
        0.1527409702539444,
        1.0
      ],
      "min": [
        -0.15261894464492798,
        -0.1527409702539444,
        0.9882617592811584
      ],
      "type": "VEC3"
    },
    {
      "bufferView": 1,
      "byteOffset": 1840,
      "componentType": 5126,
      "count": 181,
      "max": [
        0.9345560073852539,
        0.984811007976532
      ],
      "min": [
        0.1299930065870285,
        0.017462000250816345
      ],
      "type": "VEC2"
    },
    {
      "bufferView": 0,
      "byteOffset": 4560,
      "componentType": 5125,
      "count": 900,
      "type": "SCALAR"
    },
    {
      "bufferView": 2,
      "byteOffset": 9864,
      "componentType": 5126,
      "count": 2666,
      "max": [
        8.878938674926758,
        7.767075061798096,
        2.229228973388672
      ],
      "min": [
        -9.054210662841797,
        -10.166346549987793,
        0.3030650019645691
      ],
      "type": "VEC3"
    },
    {
      "bufferView": 2,
      "byteOffset": 41856,
      "componentType": 5126,
      "count": 2666,
      "max": [
        0.9998514652252197,
        0.999851644039154,
        1.0
      ],
      "min": [
        -0.9998514652252197,
        -0.9998515844345093,
        -1.0
      ],
      "type": "VEC3"
    },
    {
      "bufferView": 1,
      "byteOffset": 3288,
      "componentType": 5126,
      "count": 2666,
      "max": [
        0.8329669833183289,
        1.0
      ],
      "min": [
        0.09501300007104874,
        -0.0
      ],
      "type": "VEC2"
    },
    {
      "bufferView": 0,
      "byteOffset": 8160,
      "componentType": 5125,
      "count": 14100,
      "type": "SCALAR"
    },
    {
      "bufferView": 2,
      "byteOffset": 73848,
      "componentType": 5126,
      "count": 66,
      "max": [
        1.0239850282669067,
        3.611593008041382,
        1.902340054512024
      ],
      "min": [
        -0.425588995218277,
        -1.2944639921188354,
        1.6799800395965576
      ],
      "type": "VEC3"
    },
    {
      "bufferView": 2,
      "byteOffset": 74640,
      "componentType": 5126,
      "count": 66,
      "max": [
        0.9934676289558411,
        0.9823691248893738,
        1.0
      ],
      "min": [
        -0.9997376203536987,
        -0.6967160701751709,
        -1.0
      ],
      "type": "VEC3"
    },
    {
      "bufferView": 1,
      "byteOffset": 24616,
      "componentType": 5126,
      "count": 66,
      "max": [
        0.875,
        1.0
      ],
      "min": [
        0.38015198707580566,
        0.0
      ],
      "type": "VEC2"
    },
    {
      "bufferView": 0,
      "byteOffset": 64560,
      "componentType": 5125,
      "count": 192,
      "type": "SCALAR"
    },
    {
      "bufferView": 2,
      "byteOffset": 75432,
      "componentType": 5126,
      "count": 66,
      "max": [
        0.2485010027885437,
        -1.166174054145813,
        1.902340054512024
      ],
      "min": [
        -1.2010730504989624,
        -6.072231769561768,
        1.6799800395965576
      ],
      "type": "VEC3"
    },
    {
      "bufferView": 2,
      "byteOffset": 76224,
      "componentType": 5126,
      "count": 66,
      "max": [
        0.9997375011444092,
        0.6966932415962219,
        1.0
      ],
      "min": [
        -0.9934678673744202,
        -0.9823691248893738,
        -1.0
      ],
      "type": "VEC3"
    },
    {
      "bufferView": 1,
      "byteOffset": 25144,
      "componentType": 5126,
      "count": 66,
      "max": [
        0.875,
        1.0
      ],
      "min": [
        0.38015198707580566,
        0.0
      ],
      "type": "VEC2"
    },
    {
      "bufferView": 0,
      "byteOffset": 65328,
      "componentType": 5125,
      "count": 192,
      "type": "SCALAR"
    }
  ],
  "asset": {
    "extras": {
      "author": "Caio de Oliveira (https://sketchfab.com/caio17011)",
      "license": "CC-BY-4.0 (http://creativecommons.org/licenses/by/4.0/)",
      "source": "https://sketchfab.com/3d-models/compass-098f5adfb58d40cab5a8376ff4796c5d",
      "title": "Compass"
    },
    "generator": "Sketchfab-13.74.0",
    "version": "2.0"
  },
  "bufferViews": [
    {
      "buffer": 0,
      "byteLength": 66096,
      "name": "floatBufferViews",
      "target": 34963
    },
    {
      "buffer": 0,
      "byteLength": 25672,
      "byteOffset": 66096,
      "byteStride": 8,
      "name": "floatBufferViews",
      "target": 34962
    },
    {
      "buffer": 0,
      "byteLength": 77016,
      "byteOffset": 91768,
      "byteStride": 12,
      "name": "floatBufferViews",
      "target": 34962
    }
  ],
  "buffers": [
    {
      "byteLength": 168784,
      "uri": "scene.bin"
    }
  ],
  "images": [
    {
      "uri": "textures/blinn16SG_baseColor.png"
    },
    {
      "uri": "textures/blinn16SG_metallicRoughness.png"
    },
    {
      "uri": "textures/blinn20SG_baseColor.png"
    },
    {
      "uri": "textures/blinn20SG_metallicRoughness.png"
    },
    {
      "uri": "textures/blinn21SG_baseColor.png"
    },
    {
      "uri": "textures/blinn21SG_metallicRoughness.png"
    },
    {
      "uri": "textures/blinn23SG_metallicRoughness.png"
    },
    {
      "uri": "textures/lambert5SG_baseColor.png"
    }
  ],
  "materials": [
    {
      "doubleSided": true,
      "name": "blinn16SG",
      "pbrMetallicRoughness": {
        "baseColorFactor": [
          0.5348587729029269,
          0.5348587729029269,
          0.5348587729029269,
          1.0
        ],
        "baseColorTexture": {
          "index": 0
        },
        "metallicRoughnessTexture": {
          "index": 1
        }
      }
    },
    {
      "doubleSided": true,
      "name": "blinn20SG",
      "pbrMetallicRoughness": {
        "baseColorTexture": {
          "index": 2
        },
        "metallicFactor": 0.0,
        "metallicRoughnessTexture": {
          "index": 3
        }
      }
    },
    {
      "doubleSided": true,
      "name": "blinn21SG",
      "pbrMetallicRoughness": {
        "baseColorFactor": [
          0.5897160829442527,
          0.5897160829442527,
          0.5897160829442527,
          1.0
        ],
        "baseColorTexture": {
          "index": 4
        },
        "metallicRoughnessTexture": {
          "index": 5
        }
      }
    },
    {
      "alphaMode": "BLEND",
      "doubleSided": true,
      "name": "blinn23SG",
      "pbrMetallicRoughness": {
        "baseColorFactor": [
          1.0,
          0.7881718656826604,
          0.583040501764196,
          0.29104850605258986
        ],
        "metallicRoughnessTexture": {
          "index": 6
        }
      }
    },
    {
      "doubleSided": true,
      "name": "lambert5SG",
      "pbrMetallicRoughness": {
        "baseColorTexture": {
          "index": 7
        },
        "metallicFactor": 0.21790542599748874,
        "metallicRoughnessTexture": {
          "index": 6
        }
      }
    }
  ],
  "meshes": [
    {
      "name": "Object_0",
      "primitives": [
        {
          "attributes": {
            "NORMAL": 1,
            "POSITION": 0,
            "TEXCOORD_0": 2
          },
          "indices": 3,
          "material": 3,
          "mode": 4
        }
      ]
    },
    {
      "name": "Object_1",
      "primitives": [
        {
          "attributes": {
            "NORMAL": 5,
            "POSITION": 4,
            "TEXCOORD_0": 6
          },
          "indices": 7,
          "material": 4,
          "mode": 4
        }
      ]
    },
    {
      "name": "Object_2",
      "primitives": [
        {
          "attributes": {
            "NORMAL": 9,
            "POSITION": 8,
            "TEXCOORD_0": 10
          },
          "indices": 11,
          "material": 0,
          "mode": 4
        }
      ]
    },
    {
      "name": "Object_3",
      "primitives": [
        {
          "attributes": {
            "NORMAL": 13,
            "POSITION": 12,
            "TEXCOORD_0": 14
          },
          "indices": 15,
          "material": 1,
          "mode": 4
        }
      ]
    },
    {
      "name": "Object_4",
      "primitives": [
        {
          "attributes": {
            "NORMAL": 17,
            "POSITION": 16,
            "TEXCOORD_0": 18
          },
          "indices": 19,
          "material": 2,
          "mode": 4
        }
      ]
    }
  ],
  "nodes": [
    {
      "children": [
        1
      ],
      "matrix": [
        1.0,
        0.0,
        0.0,
        0.0,
        0.0,
        2.220446049250313e-16,
        -1.0,
        0.0,
        0.0,
        1.0,
        2.220446049250313e-16,
        0.0,
        0.0,
        0.0,
        0.0,
        1.0
      ],
      "name": "Sketchfab_model"
    },
    {
      "children": [
        2,
        3,
        4,
        5,
        6
      ],
      "name": "bussula3.obj.cleaner.materialmerger.gles"
    },
    {
      "mesh": 0,
      "name": "Object_2"
    },
    {
      "mesh": 1,
      "name": "Object_3"
    },
    {
      "mesh": 2,
      "name": "Object_4"
    },
    {
      "mesh": 3,
      "name": "Object_5"
    },
    {
      "mesh": 4,
      "name": "Object_6"
    }
  ],
  "samplers": [
    {
      "magFilter": 9729,
      "minFilter": 9987,
      "wrapS": 10497,
      "wrapT": 10497
    }
  ],
  "scene": 0,
  "scenes": [
    {
      "name": "Sketchfab_Scene",
      "nodes": [
        0
      ]
    }
  ],
  "textures": [
    {
      "sampler": 0,
      "source": 0
    },
    {
      "sampler": 0,
      "source": 1
    },
    {
      "sampler": 0,
      "source": 2
    },
    {
      "sampler": 0,
      "source": 3
    },
    {
      "sampler": 0,
      "source": 4
    },
    {
      "sampler": 0,
      "source": 5
    },
    {
      "sampler": 0,
      "source": 6
    },
    {
      "sampler": 0,
      "source": 7
    }
  ]
}
