{
  "accessors": [
    {
      "bufferView": 2,
      "componentType": 5126,
      "count": 3243,
      "max": [
        5.3769378662109375,
        -0.8019149899482727,
        0.8540390133857727
      ],
      "min": [
        4.9764018058776855,
        -1.0918630361557007,
        -1.0984920263290405
      ],
      "type": "VEC3"
    },
    {
      "bufferView": 2,
      "byteOffset": 38916,
      "componentType": 5126,
      "count": 3243,
      "max": [
        0.9377002120018005,
        0.9720155000686646,
        0.9998352527618408
      ],
      "min": [
        -0.9376274943351746,
        -0.972419261932373,
        -0.999991774559021
      ],
      "type": "VEC3"
    },
    {
      "bufferView": 3,
      "componentType": 5126,
      "count": 3243,
      "max": [
        0.9414517879486084,
        0.944448709487915,
        0.9380642175674438,
        1.0
      ],
      "min": [
        -0.9396450519561768,
        -0.9152251482009888,
        -0.9999448657035828,
        -1.0
      ],
      "type": "VEC4"
    },
    {
      "bufferView": 1,
      "componentType": 5126,
      "count": 3243,
      "max": [
        0.8573690056800842,
        0.8933020234107971
      ],
      "min": [
        0.10240600258111954,
        0.10669799894094467
      ],
      "type": "VEC2"
    },
    {
      "bufferView": 0,
      "componentType": 5125,
      "count": 11310,
      "type": "SCALAR"
    },
    {
      "bufferView": 2,
      "byteOffset": 77832,
      "componentType": 5126,
      "count": 3604,
      "max": [
        1.099871039390564,
        1.100000023841858,
        1.099524974822998
      ],
      "min": [
        -1.099871039390564,
        -1.100000023841858,
        -1.099524974822998
      ],
      "type": "VEC3"
    },
    {
      "bufferView": 2,
      "byteOffset": 121080,
      "componentType": 5126,
      "count": 3604,
      "max": [
        0.999650776386261,
        0.9986633658409119,
        0.9998952150344849
      ],
      "min": [
        -0.999650776386261,
        -0.9986632466316223,
        -0.9998952150344849
      ],
      "type": "VEC3"
    },
    {
      "bufferView": 3,
      "byteOffset": 51888,
      "componentType": 5126,
      "count": 3604,
      "max": [
        0.9969163537025452,
        0.9999712705612183,
        0.999908447265625,
        1.0
      ],
      "min": [
        -0.9996435046195984,
        -0.999683141708374,
        -0.9994222521781921,
        -1.0
      ],
      "type": "VEC4"
    },
    {
      "bufferView": 1,
      "byteOffset": 25944,
      "componentType": 5126,
      "count": 3604,
      "max": [
        0.8996549844741821,
        0.8762170076370239
      ],
      "min": [
        0.10990499705076218,
        0.10404700040817261
      ],
      "type": "VEC2"
    },
    {
      "bufferView": 0,
      "byteOffset": 45240,
      "componentType": 5125,
      "count": 8640,
      "type": "SCALAR"
    },
    {
      "bufferView": 2,
      "byteOffset": 164328,
      "componentType": 5126,
      "count": 140,
      "max": [
        -1.8548849821090698,
        0.7824910283088684,
        1.224990963935852
      ],
      "min": [
        -23.04912567138672,
        -0.5565320253372192,
        -1.224990963935852
      ],
      "type": "VEC3"
    },
    {
      "bufferView": 2,
      "byteOffset": 166008,
      "componentType": 5126,
      "count": 140,
      "max": [
        0.9463215470314026,
        1.0,
        0.9908440113067627
      ],
      "min": [
        -0.8455992937088013,
        -1.0,
        -0.990843653678894
      ],
      "type": "VEC3"
    },
    {
      "bufferView": 3,
      "byteOffset": 109552,
      "componentType": 5126,
      "count": 140,
      "max": [
        0.9950792789459229,
        0.8304561376571655,
        0.12375672906637192,
        1.0
      ],
      "min": [
        -0.9870395660400391,
        -0.1134456992149353,
        -0.9999798536300659,
        1.0
      ],
      "type": "VEC4"
    },
    {
      "bufferView": 1,
      "byteOffset": 54776,
      "componentType": 5126,
      "count": 140,
      "max": [
        0.9434459805488586,
        0.8950200080871582
      ],
      "min": [
        0.06959699839353561,
        0.0897890031337738
      ],
      "type": "VEC2"
    },
    {
      "bufferView": 0,
      "byteOffset": 79800,
      "componentType": 5125,
      "count": 372,
      "type": "SCALAR"
    },
    {
      "bufferView": 2,
      "byteOffset": 167688,
      "componentType": 5126,
      "count": 587,
      "max": [
        3.052640914916992,
        1.0010830163955688,
        2.2153940200805664
      ],
      "min": [
        -3.052640914916992,
        -1.0,
        -3.0523929595947266
      ],
      "type": "VEC3"
    },
    {
      "bufferView": 2,
      "byteOffset": 174732,
      "componentType": 5126,
      "count": 587,
      "max": [
        0.9782838821411133,
        1.0,
        0.9991496205329895
      ],
      "min": [
        -0.9780498743057251,
        -0.9999995231628418,
        -0.9854184985160828
      ],
      "type": "VEC3"
    },
    {
      "bufferView": 3,
      "byteOffset": 111792,
      "componentType": 5126,
      "count": 587,
      "max": [
        0.8165770769119263,
        0.79664146900177,
        0.9986526966094971,
        1.0
      ],
      "min": [
        -0.9726571440696716,
        -0.9998418688774109,
        -0.9967727661132813,
        1.0
      ],
      "type": "VEC4"
    },
    {
      "bufferView": 1,
      "byteOffset": 55896,
      "componentType": 5126,
      "count": 587,
      "max": [
        0.9404910206794739,
        0.8592990040779114
      ],
      "min": [
        0.051318999379873276,
        0.05325400084257126
      ],
      "type": "VEC2"
    },
    {
      "bufferView": 0,
      "byteOffset": 81288,
      "componentType": 5125,
      "count": 2346,
      "type": "SCALAR"
    }
  ],
  "asset": {
    "extras": {
      "author": "Gavinho.yuri (https://sketchfab.com/Gavinho.yuri)",
      "license": "CC-BY-4.0 (http://creativecommons.org/licenses/by/4.0/)",
      "source": "https://sketchfab.com/3d-models/trofeu-brasileirao-5a2955df0be44360ae93c4c015f3b4f5",
      "title": "Troféu Brasileirão"
    },
    "generator": "Sketchfab-12.65.0",
    "version": "2.0"
  },
  "bufferViews": [
    {
      "buffer": 0,
      "byteLength": 90672,
      "name": "floatBufferViews",
      "target": 34963
    },
    {
      "buffer": 0,
      "byteLength": 60592,
      "byteOffset": 90672,
      "byteStride": 8,
      "name": "floatBufferViews",
      "target": 34962
    },
    {
      "buffer": 0,
      "byteLength": 181776,
      "byteOffset": 151264,
      "byteStride": 12,
      "name": "floatBufferViews",
      "target": 34962
    },
    {
      "buffer": 0,
      "byteLength": 121184,
      "byteOffset": 333040,
      "byteStride": 16,
      "name": "floatBufferViews",
      "target": 34962
    }
  ],
  "buffers": [
    {
      "byteLength": 454224,
      "uri": "scene.bin"
    }
  ],
  "images": [
    {
      "uri": "textures/lambert4_baseColor.jpeg"
    },
    {
      "uri": "textures/lambert4_metallicRoughness.png"
    },
    {
      "uri": "textures/lambert4_normal.png"
    },
    {
      "uri": "textures/lambert3_baseColor.jpeg"
    },
    {
      "uri": "textures/lambert3_metallicRoughness.png"
    },
    {
      "uri": "textures/lambert3_normal.png"
    },
    {
      "uri": "textures/lambert5_baseColor.jpeg"
    },
    {
      "uri": "textures/lambert5_metallicRoughness.png"
    },
    {
      "uri": "textures/lambert5_normal.png"
    },
    {
      "uri": "textures/lambert2_baseColor.jpeg"
    },
    {
      "uri": "textures/lambert2_metallicRoughness.png"
    },
    {
      "uri": "textures/lambert2_normal.png"
    }
  ],
  "materials": [
    {
      "doubleSided": true,
      "name": "lambert4",
      "normalTexture": {
        "index": 2
      },
      "occlusionTexture": {
        "index": 1
      },
      "pbrMetallicRoughness": {
        "baseColorTexture": {
          "index": 0
        },
        "metallicRoughnessTexture": {
          "index": 1
        }
      }
    },
    {
      "doubleSided": true,
      "name": "lambert3",
      "normalTexture": {
        "index": 5
      },
      "occlusionTexture": {
        "index": 4
      },
      "pbrMetallicRoughness": {
        "baseColorTexture": {
          "index": 3
        },
        "metallicRoughnessTexture": {
          "index": 4
        }
      }
    },
    {
      "doubleSided": true,
      "name": "lambert5",
      "normalTexture": {
        "index": 8
      },
      "occlusionTexture": {
        "index": 7
      },
      "pbrMetallicRoughness": {
        "baseColorTexture": {
          "index": 6
        },
        "metallicRoughnessTexture": {
          "index": 7
        }
      }
    },
    {
      "doubleSided": true,
      "name": "lambert2",
      "normalTexture": {
        "index": 11
      },
      "occlusionTexture": {
        "index": 10
      },
      "pbrMetallicRoughness": {
        "baseColorTexture": {
          "index": 9
        },
        "metallicRoughnessTexture": {
          "index": 10
        }
      }
    }
  ],
  "meshes": [
    {
      "name": "defaultMaterial",
      "primitives": [
        {
          "attributes": {
            "NORMAL": 1,
            "POSITION": 0,
            "TANGENT": 2,
            "TEXCOORD_0": 3
          },
          "indices": 4,
          "material": 3,
          "mode": 4
        }
      ]
    },
    {
      "name": "defaultMaterial",
      "primitives": [
        {
          "attributes": {
            "NORMAL": 6,
            "POSITION": 5,
            "TANGENT": 7,
            "TEXCOORD_0": 8
          },
          "indices": 9,
          "material": 2,
          "mode": 4
        }
      ]
    },
    {
      "name": "defaultMaterial",
      "primitives": [
        {
          "attributes": {
            "NORMAL": 11,
            "POSITION": 10,
            "TANGENT": 12,
            "TEXCOORD_0": 13
          },
          "indices": 14,
          "material": 1,
          "mode": 4
        }
      ]
    },
    {
      "name": "defaultMaterial",
      "primitives": [
        {
          "attributes": {
            "NORMAL": 16,
            "POSITION": 15,
            "TANGENT": 17,
            "TEXCOORD_0": 18
          },
          "indices": 19,
          "material": 0,
          "mode": 4
        }
      ]
    }
  ],
  "nodes": [
    {
      "children": [
        1
      ],
      "matrix": [
        1.0,
        0.0,
        0.0,
        0.0,
        0.0,
        2.220446049250313e-16,
        -1.0,
        0.0,
        0.0,
        1.0,
        2.220446049250313e-16,
        0.0,
        0.0,
        0.0,
        0.0,
        1.0
      ],
      "name": "Sketchfab_model"
    },
    {
      "children": [
        2,
        4,
        6,
        8
      ],
      "matrix": [
        1.0,
        0.0,
        0.0,
        0.0,
        0.0,
        -4.371139006309477e-08,
        0.999999999999999,
        0.0,
        0.0,
        -0.999999999999999,
        -4.371139006309477e-08,
        0.0,
        0.0,
        0.0,
        0.0,
        1.0
      ],
      "name": "Collada visual scene group"
    },
    {
      "children": [
        3
      ],
      "matrix": [
        0.984481,
        0.165409,
        0.05862,
        0.0,
        -0.165694,
        0.986177,
        0.0,
        0.0,
        -0.05781,
        -0.009713,
        0.99828,
        0.0,
        -0.14422,
        -0.868662,
        -0.157335,
        1.0
      ],
      "name": "typeMesh1"
    },
    {
      "mesh": 0,
      "name": "defaultMaterial"
    },
    {
      "children": [
        5
      ],
      "matrix": [
        0.877714,
        0.0,
        0.0,
        0.0,
        0.0,
        0.877714,
        0.0,
        0.0,
        0.0,
        0.0,
        0.877714,
        0.0,
        4.317996,
        2.598607,
        0.14197,
        1.0
      ],
      "name": "pSolid1"
    },
    {
      "mesh": 1,
      "name": "defaultMaterial"
    },
    {
      "children": [
        7
      ],
      "matrix": [
        0.039226,
        0.0,
        0.0,
        0.0,
        0.0,
        4.07915,
        0.0,
        0.0,
        0.0,
        0.0,
        1.0,
        0.0,
        4.194927,
        1.446535,
        0.098829,
        1.0
      ],
      "name": "pCube1"
    },
    {
      "mesh": 2,
      "name": "defaultMaterial"
    },
    {
      "children": [
        9
      ],
      "matrix": [
        0.0,
        0.0,
        -1.0,
        0.0,
        0.0,
        3.642561,
        0.0,
        0.0,
        1.0,
        0.0,
        0.0,
        0.0,
        3.468618,
        1.976095,
        0.0,
        1.0
      ],
      "name": "pCylinder1"
    },
    {
      "mesh": 3,
      "name": "defaultMaterial"
    }
  ],
  "samplers": [
    {
      "magFilter": 9729,
      "minFilter": 9987,
      "wrapS": 10497,
      "wrapT": 10497
    }
  ],
  "scene": 0,
  "scenes": [
    {
      "name": "Sketchfab_Scene",
      "nodes": [
        0
      ]
    }
  ],
  "textures": [
    {
      "sampler": 0,
      "source": 0
    },
    {
      "sampler": 0,
      "source": 1
    },
    {
      "sampler": 0,
      "source": 2
    },
    {
      "sampler": 0,
      "source": 3
    },
    {
      "sampler": 0,
      "source": 4
    },
    {
      "sampler": 0,
      "source": 5
    },
    {
      "sampler": 0,
      "source": 6
    },
    {
      "sampler": 0,
      "source": 7
    },
    {
      "sampler": 0,
      "source": 8
    },
    {
      "sampler": 0,
      "source": 9
    },
    {
      "sampler": 0,
      "source": 10
    },
    {
      "sampler": 0,
      "source": 11
    }
  ]
}
