{
  "accessors": [
    {
      "bufferView": 2,
      "componentType": 5126,
      "count": 132,
      "max": [
        0.8755239844322205,
        0.8746449947357178,
        7.447281837463379
      ],
      "min": [
        -0.8685230016708374,
        -0.8694040179252625,
        6.992043972015381
      ],
      "type": "VEC3"
    },
    {
      "bufferView": 2,
      "byteOffset": 1584,
      "componentType": 5126,
      "count": 132,
      "max": [
        0.9569381475448608,
        0.9569381475448608,
        0.6344003081321716
      ],
      "min": [
        -0.9569382071495056,
        -0.9569382071495056,
        0.2902863323688507
      ],
      "type": "VEC3"
    },
    {
      "bufferView": 3,
      "componentType": 5126,
      "count": 132,
      "max": [
        1.0,
        1.0,
        1.0,
        0.0
      ],
      "min": [
        1.0,
        1.0,
        1.0,
        0.0
      ],
      "type": "VEC4"
    },
    {
      "bufferView": 1,
      "componentType": 5126,
      "count": 132,
      "max": [
        1.0,
        0.75
      ],
      "min": [
        0.0,
        0.5625
      ],
      "type": "VEC2"
    },
    {
      "bufferView": 0,
      "componentType": 5125,
      "count": 576,
      "type": "SCALAR"
    },
    {
      "bufferView": 2,
      "byteOffset": 3168,
      "componentType": 5126,
      "count": 2535,
      "max": [
        1.2948249578475952,
        1.2948249578475952,
        7.098516941070557
      ],
      "min": [
        -1.2948249578475952,
        -1.2948249578475952,
        3.278043031692505
      ],
      "type": "VEC3"
    },
    {
      "bufferView": 2,
      "byteOffset": 33588,
      "componentType": 5126,
      "count": 2535,
      "max": [
        1.0,
        1.0,
        1.0
      ],
      "min": [
        -1.0,
        -1.0,
        -1.0
      ],
      "type": "VEC3"
    },
    {
      "bufferView": 3,
      "byteOffset": 2112,
      "componentType": 5126,
      "count": 2535,
      "max": [
        1.0,
        1.0,
        1.0,
        0.0
      ],
      "min": [
        1.0,
        1.0,
        1.0,
        0.0
      ],
      "type": "VEC4"
    },
    {
      "bufferView": 1,
      "byteOffset": 1056,
      "componentType": 5126,
      "count": 2535,
      "max": [
        1.0,
        0.5625
      ],
      "min": [
        0.0,
        0.0
      ],
      "type": "VEC2"
    },
    {
      "bufferView": 0,
      "byteOffset": 2304,
      "componentType": 5125,
      "count": 14928,
      "type": "SCALAR"
    },
    {
      "bufferView": 2,
      "byteOffset": 64008,
      "componentType": 5126,
      "count": 576,
      "max": [
        1.4583090543746948,
        1.4583090543746948,
        3.277229070663452
      ],
      "min": [
        -1.4583090543746948,
        -1.4583090543746948,
        0.0
      ],
      "type": "VEC3"
    },
    {
      "bufferView": 2,
      "byteOffset": 70920,
      "componentType": 5126,
      "count": 576,
      "max": [
        1.0,
        1.0,
        0.9999383687973022
      ],
      "min": [
        -1.0,
        -1.0,
        -1.0
      ],
      "type": "VEC3"
    },
    {
      "bufferView": 3,
      "byteOffset": 42672,
      "componentType": 5126,
      "count": 576,
      "max": [
        0.5610631108283997,
        1.0,
        0.9927525520324707,
        1.0
      ],
      "min": [
        -1.0,
        -1.0,
        -0.9927526712417603,
        -1.0
      ],
      "type": "VEC4"
    },
    {
      "bufferView": 3,
      "byteOffset": 51888,
      "componentType": 5126,
      "count": 576,
      "max": [
        1.0,
        1.0,
        1.0,
        0.0
      ],
      "min": [
        1.0,
        1.0,
        1.0,
        0.0
      ],
      "type": "VEC4"
    },
    {
      "bufferView": 1,
      "byteOffset": 21336,
      "componentType": 5126,
      "count": 576,
      "max": [
        0.9769120216369629,
        1.055251955986023
      ],
      "min": [
        0.04406699910759926,
        0.007069000042974949
      ],
      "type": "VEC2"
    },
    {
      "bufferView": 1,
      "byteOffset": 25944,
      "componentType": 5126,
      "count": 576,
      "max": [
        0.9769120216369629,
        1.055251955986023
      ],
      "min": [
        0.04406699910759926,
        0.007069000042974949
      ],
      "type": "VEC2"
    },
    {
      "bufferView": 0,
      "byteOffset": 62016,
      "componentType": 5125,
      "count": 3444,
      "type": "SCALAR"
    },
    {
      "bufferView": 2,
      "byteOffset": 77832,
      "componentType": 5126,
      "count": 38811,
      "max": [
        1.3691329956054688,
        1.373095989227295,
        8.657710075378418
      ],
      "min": [
        -1.3711429834365845,
        -1.368698000907898,
        0.7901639938354492
      ],
      "type": "VEC3"
    },
    {
      "bufferView": 2,
      "byteOffset": 543564,
      "componentType": 5126,
      "count": 38811,
      "max": [
        1.0,
        1.0,
        1.0
      ],
      "min": [
        -1.0,
        -1.0,
        -1.0
      ],
      "type": "VEC3"
    },
    {
      "bufferView": 3,
      "byteOffset": 61104,
      "componentType": 5126,
      "count": 38811,
      "max": [
        1.0,
        1.0,
        1.0,
        0.0
      ],
      "min": [
        1.0,
        1.0,
        1.0,
        0.0
      ],
      "type": "VEC4"
    },
    {
      "bufferView": 1,
      "byteOffset": 30552,
      "componentType": 5126,
      "count": 38811,
      "max": [
        1.0,
        1.0
      ],
      "min": [
        0.0,
        0.0
      ],
      "type": "VEC2"
    },
    {
      "bufferView": 0,
      "byteOffset": 75792,
      "componentType": 5125,
      "count": 215532,
      "type": "SCALAR"
    },
    {
      "bufferView": 2,
      "byteOffset": 1009296,
      "componentType": 5126,
      "count": 120,
      "max": [
        0.7474409937858582,
        0.7358099818229675,
        4.740750789642334
      ],
      "min": [
        -0.7408890128135681,
        -0.7467799782752991,
        4.089906215667725
      ],
      "type": "VEC3"
    },
    {
      "bufferView": 2,
      "byteOffset": 1010736,
      "componentType": 5126,
      "count": 120,
      "max": [
        0.8527037501335144,
        0.8647230267524719,
        0.86629718542099
      ],
      "min": [
        -0.8557130694389343,
        -0.8647240400314331,
        0.09109864383935928
      ],
      "type": "VEC3"
    },
    {
      "bufferView": 3,
      "byteOffset": 682080,
      "componentType": 5126,
      "count": 120,
      "max": [
        0.8649465441703796,
        0.8538706302642822,
        0.12802815437316895,
        1.0
      ],
      "min": [
        -0.8661856651306152,
        -0.8569780588150024,
        -0.10649523884057999,
        1.0
      ],
      "type": "VEC4"
    },
    {
      "bufferView": 3,
      "byteOffset": 684000,
      "componentType": 5126,
      "count": 120,
      "max": [
        1.0,
        1.0,
        1.0,
        0.0
      ],
      "min": [
        1.0,
        1.0,
        1.0,
        0.0
      ],
      "type": "VEC4"
    },
    {
      "bufferView": 1,
      "byteOffset": 341040,
      "componentType": 5126,
      "count": 120,
      "max": [
        0.9441760182380676,
        0.901790976524353
      ],
      "min": [
        0.0452749989926815,
        -0.027943000197410583
      ],
      "type": "VEC2"
    },
    {
      "bufferView": 0,
      "byteOffset": 937920,
      "componentType": 5125,
      "count": 480,
      "type": "SCALAR"
    },
    {
      "bufferView": 2,
      "byteOffset": 1012176,
      "componentType": 5126,
      "count": 2454,
      "max": [
        1.3691329956054688,
        1.373095989227295,
        3.2265350818634033
      ],
      "min": [
        -1.3711429834365845,
        -1.3659100532531738,
        0.7969329953193665
      ],
      "type": "VEC3"
    },
    {
      "bufferView": 2,
      "byteOffset": 1041624,
      "componentType": 5126,
      "count": 2454,
      "max": [
        0.9999830722808838,
        0.9997789859771729,
        0.0
      ],
      "min": [
        -0.999996542930603,
        -0.9985169172286987,
        0.0
      ],
      "type": "VEC3"
    },
    {
      "bufferView": 3,
      "byteOffset": 685920,
      "componentType": 5126,
      "count": 2454,
      "max": [
        1.0,
        1.0,
        1.0,
        0.0
      ],
      "min": [
        1.0,
        1.0,
        1.0,
        0.0
      ],
      "type": "VEC4"
    },
    {
      "bufferView": 1,
      "byteOffset": 342000,
      "componentType": 5126,
      "count": 2454,
      "max": [
        0.9995589852333069,
        0.9289190173149109
      ],
      "min": [
        0.004914000164717436,
        0.00028700000257231295
      ],
      "type": "VEC2"
    },
    {
      "bufferView": 0,
      "byteOffset": 939840,
      "componentType": 5125,
      "count": 6996,
      "type": "SCALAR"
    },
    {
      "bufferView": 2,
      "byteOffset": 1071072,
      "componentType": 5126,
      "count": 80,
      "max": [
        0.7964169979095459,
        0.784509003162384,
        4.083858013153076
      ],
      "min": [
        -0.7895089983940125,
        -0.7954789996147156,
        3.997951030731201
      ],
      "type": "VEC3"
    },
    {
      "bufferView": 2,
      "byteOffset": 1072032,
      "componentType": 5126,
      "count": 80,
      "max": [
        1.0,
        1.0,
        0.0
      ],
      "min": [
        -1.0,
        -1.0,
        0.0
      ],
      "type": "VEC3"
    },
    {
      "bufferView": 3,
      "byteOffset": 725184,
      "componentType": 5126,
      "count": 80,
      "max": [
        1.0,
        1.0,
        1.0,
        0.0
      ],
      "min": [
        1.0,
        1.0,
        1.0,
        0.0
      ],
      "type": "VEC4"
    },
    {
      "bufferView": 1,
      "byteOffset": 361632,
      "componentType": 5126,
      "count": 80,
      "max": [
        0.8800560235977173,
        1.0406869649887085
      ],
      "min": [
        0.10952399671077728,
        0.034047000110149384
      ],
      "type": "VEC2"
    },
    {
      "bufferView": 0,
      "byteOffset": 967824,
      "componentType": 5125,
      "count": 240,
      "type": "SCALAR"
    },
    {
      "bufferView": 2,
      "byteOffset": 1072992,
      "componentType": 5126,
      "count": 7920,
      "max": [
        21.155019760131836,
        21.155027389526367,
        3.4074249267578125
      ],
      "min": [
        7.62939453125e-06,
        -3.814697265625e-06,
        0.0
      ],
      "type": "VEC3"
    },
    {
      "bufferView": 2,
      "byteOffset": 1168032,
      "componentType": 5126,
      "count": 7920,
      "max": [
        0.9998215436935425,
        1.0,
        1.0
      ],
      "min": [
        -0.9999511241912842,
        -1.0,
        -1.0
      ],
      "type": "VEC3"
    },
    {
      "bufferView": 3,
      "byteOffset": 726464,
      "componentType": 5126,
      "count": 7920,
      "max": [
        0.9725490212440491,
        0.9647058844566345,
        0.9176470637321472,
        0.0
      ],
      "min": [
        0.9725490212440491,
        0.9647058844566345,
        0.9176470637321472,
        0.0
      ],
      "type": "VEC4"
    },
    {
      "bufferView": 0,
      "byteOffset": 968784,
      "componentType": 5125,
      "count": 54240,
      "type": "SCALAR"
    }
  ],
  "asset": {
    "extras": {
      "author": "Itz_fahertz (https://sketchfab.com/Itz_fahertz)",
      "license": "CC-BY-4.0 (http://creativecommons.org/licenses/by/4.0/)",
      "source": "https://sketchfab.com/3d-models/copa-libertadores-byfahertz-3834c6b3a4634176ad7c6f6ed04f0347",
      "title": "Copa_libertadores_byfahertz"
    },
    "generator": "Sketchfab-15.42.0",
    "version": "2.0"
  },
  "bufferViews": [
    {
      "buffer": 0,
      "byteLength": 1185744,
      "name": "floatBufferViews",
      "target": 34963
    },
    {
      "buffer": 0,
      "byteLength": 362272,
      "byteOffset": 1185744,
      "byteStride": 8,
      "name": "floatBufferViews",
      "target": 34962
    },
    {
      "buffer": 0,
      "byteLength": 1263072,
      "byteOffset": 1548016,
      "byteStride": 12,
      "name": "floatBufferViews",
      "target": 34962
    },
    {
      "buffer": 0,
      "byteLength": 853184,
      "byteOffset": 2811088,
      "byteStride": 16,
      "name": "floatBufferViews",
      "target": 34962
    }
  ],
  "buffers": [
    {
      "byteLength": 3664272,
      "uri": "scene.bin"
    }
  ],
  "extensionsUsed": [
    "KHR_materials_specular"
  ],
  "images": [
    {
      "uri": "textures/Material_specularf0.png"
    },
    {
      "uri": "textures/Material.002_baseColor.png"
    },
    {
      "uri": "textures/Material.002_normal.png"
    },
    {
      "uri": "textures/Material.005_normal.png"
    },
    {
      "uri": "textures/Material.006_baseColor.png"
    }
  ],
  "materials": [
    {
      "doubleSided": true,
      "extensions": {
        "KHR_materials_specular": {
          "specularColorFactor": [
            1.0,
            1.0,
            1.0
          ],
          "specularFactor": 1.0,
          "specularTexture": {
            "index": 0
          }
        }
      },
      "name": "Material",
      "pbrMetallicRoughness": {
        "metallicFactor": 0.8824180759501123,
        "roughnessFactor": 0.25
      }
    },
    {
      "doubleSided": true,
      "name": "Material.001",
      "pbrMetallicRoughness": {
        "metallicFactor": 0.7447322734963282,
        "roughnessFactor": 0.25
      }
    },
    {
      "doubleSided": true,
      "extensions": {
        "KHR_materials_specular": {
          "specularColorFactor": [
            1.0,
            1.0,
            1.0
          ],
          "specularFactor": 1.0,
          "specularTexture": {
            "index": 0
          }
        }
      },
      "name": "Material.002",
      "normalTexture": {
        "index": 2
      },
      "pbrMetallicRoughness": {
        "baseColorTexture": {
          "index": 1
        },
        "metallicFactor": 0.45834567461562564,
        "roughnessFactor": 0.25
      }
    },
    {
      "doubleSided": true,
      "extensions": {
        "KHR_materials_specular": {
          "specularColorFactor": [
            1.0,
            1.0,
            1.0
          ],
          "specularFactor": 1.0
        }
      },
      "name": "Material.003",
      "pbrMetallicRoughness": {
        "metallicFactor": 0.8328512056062974,
        "roughnessFactor": 0.25
      }
    },
    {
      "doubleSided": true,
      "name": "Material.005",
      "normalTexture": {
        "index": 3
      },
      "pbrMetallicRoughness": {
        "metallicFactor": 0.8108214030555024,
        "roughnessFactor": 0.25
      }
    },
    {
      "doubleSided": true,
      "name": "Material.006",
      "pbrMetallicRoughness": {
        "baseColorTexture": {
          "index": 4
        },
        "metallicFactor": 0.7227025636432701,
        "roughnessFactor": 0.25
      }
    },
    {
      "doubleSided": true,
      "name": "Material.008",
      "pbrMetallicRoughness": {
        "metallicFactor": 0.0,
        "roughnessFactor": 0.25
      }
    },
    {
      "name": "Color_002",
      "pbrMetallicRoughness": {
        "metallicFactor": 0.0,
        "roughnessFactor": 0.25
      }
    }
  ],
  "meshes": [
    {
      "name": "Object_0",
      "primitives": [
        {
          "attributes": {
            "COLOR_0": 2,
            "NORMAL": 1,
            "POSITION": 0,
            "TEXCOORD_0": 3
          },
          "indices": 4,
          "material": 0,
          "mode": 4
        }
      ]
    },
    {
      "name": "Object_1",
      "primitives": [
        {
          "attributes": {
            "COLOR_0": 7,
            "NORMAL": 6,
            "POSITION": 5,
            "TEXCOORD_0": 8
          },
          "indices": 9,
          "material": 1,
          "mode": 4
        }
      ]
    },
    {
      "name": "Object_2",
      "primitives": [
        {
          "attributes": {
            "COLOR_0": 13,
            "NORMAL": 11,
            "POSITION": 10,
            "TANGENT": 12,
            "TEXCOORD_0": 14,
            "TEXCOORD_1": 15
          },
          "indices": 16,
          "material": 2,
          "mode": 4
        }
      ]
    },
    {
      "name": "Object_3",
      "primitives": [
        {
          "attributes": {
            "COLOR_0": 19,
            "NORMAL": 18,
            "POSITION": 17,
            "TEXCOORD_0": 20
          },
          "indices": 21,
          "material": 3,
          "mode": 4
        }
      ]
    },
    {
      "name": "Object_4",
      "primitives": [
        {
          "attributes": {
            "COLOR_0": 25,
            "NORMAL": 23,
            "POSITION": 22,
            "TANGENT": 24,
            "TEXCOORD_0": 26
          },
          "indices": 27,
          "material": 4,
          "mode": 4
        }
      ]
    },
    {
      "name": "Object_5",
      "primitives": [
        {
          "attributes": {
            "COLOR_0": 30,
            "NORMAL": 29,
            "POSITION": 28,
            "TEXCOORD_0": 31
          },
          "indices": 32,
          "material": 5,
          "mode": 4
        }
      ]
    },
    {
      "name": "Object_6",
      "primitives": [
        {
          "attributes": {
            "COLOR_0": 35,
            "NORMAL": 34,
            "POSITION": 33,
            "TEXCOORD_0": 36
          },
          "indices": 37,
          "material": 6,
          "mode": 4
        }
      ]
    },
    {
      "name": "Object_7",
      "primitives": [
        {
          "attributes": {
            "COLOR_0": 40,
            "NORMAL": 39,
            "POSITION": 38
          },
          "indices": 41,
          "material": 7,
          "mode": 4
        }
      ]
    }
  ],
  "nodes": [
    {
      "children": [
        1
      ],
      "matrix": [
        1.0,
        0.0,
        0.0,
        0.0,
        0.0,
        2.220446049250313e-16,
        -1.0,
        0.0,
        0.0,
        1.0,
        2.220446049250313e-16,
        0.0,
        0.0,
        0.0,
        0.0,
        1.0
      ],
      "name": "Sketchfab_model"
    },
    {
      "children": [
        2
      ],
      "name": "root"
    },
    {
      "children": [
        3
      ],
      "matrix": [
        1.0,
        0.0,
        0.0,
        0.0,
        0.0,
        2.220446049250313e-16,
        1.0,
        0.0,
        0.0,
        -1.0,
        2.220446049250313e-16,
        0.0,
        0.0,
        0.0,
        0.0,
        1.0
      ],
      "name": "GLTF_SceneRootNode"
    },
    {
      "children": [
        4
      ],
      "matrix": [
        1.0,
        0.0,
        0.0,
        0.0,
        0.0,
        5.960464477539063e-08,
        -0.9999999403953552,
        0.0,
        0.0,
        0.9999999403953552,
        5.960464477539063e-08,
        0.0,
        0.0,
        0.0,
        0.0,
        1.0
      ],
      "name": "Sketchfab_model_0"
    },
    {
      "children": [
        5,
        7,
        9,
        11,
        13,
        15,
        17,
        19
      ],
      "name": "copalibertadores.obj.cleaner.materialmerger.gles_1"
    },
    {
      "children": [
        6
      ],
      "name": "Object_2"
    },
    {
      "mesh": 0,
      "name": "Object_6"
    },
    {
      "children": [
        8
      ],
      "name": "Object_1_3"
    },
    {
      "mesh": 1,
      "name": "Object_8"
    },
    {
      "children": [
        10
      ],
      "name": "Object_2_4"
    },
    {
      "mesh": 2,
      "name": "Object_10"
    },
    {
      "children": [
        12
      ],
      "name": "Object_3_5"
    },
    {
      "mesh": 3,
      "name": "Object_12"
    },
    {
      "children": [
        14
      ],
      "name": "Object_5_6"
    },
    {
      "mesh": 4,
      "name": "Object_14"
    },
    {
      "children": [
        16
      ],
      "name": "Object_7_8"
    },
    {
      "mesh": 5,
      "name": "Object_16"
    },
    {
      "children": [
        18
      ],
      "name": "Object_8_9"
    },
    {
      "mesh": 6,
      "name": "Object_18"
    },
    {
      "children": [
        20
      ],
      "matrix": [
        0.027801835909485817,
        -0.08237417787313461,
        1.2115596526030004e-08,
        0.0,
        0.08237416297197342,
        0.02780183032155037,
        -2.910549579127064e-09,
        0.0,
        -1.1166602087442357e-09,
        1.2410151128960933e-08,
        0.08693927526473999,
        0.0,
        -1.1609196662902832,
        0.5904753804206848,
        6.671109199523926,
        1.0
      ],
      "name": "Material 574_10"
    },
    {
      "mesh": 7,
      "name": "Object_20"
    }
  ],
  "samplers": [
    {
      "magFilter": 9729,
      "minFilter": 9987,
      "wrapS": 10497,
      "wrapT": 10497
    }
  ],
  "scene": 0,
  "scenes": [
    {
      "name": "Sketchfab_Scene",
      "nodes": [
        0
      ]
    }
  ],
  "textures": [
    {
      "sampler": 0,
      "source": 0
    },
    {
      "sampler": 0,
      "source": 1
    },
    {
      "sampler": 0,
      "source": 2
    },
    {
      "sampler": 0,
      "source": 3
    },
    {
      "sampler": 0,
      "source": 4
    }
  ]
}
