{
  "accessors": [
    {
      "bufferView": 2,
      "componentType": 5126,
      "count": 37,
      "max": [
        0.5427860021591187,
        9.538352966308594,
        0.6215458512306213
      ],
      "min": [
        -5.032556533813477,
        0.9285187721252441,
        -0.2827332615852356
      ],
      "type": "VEC3"
    },
    {
      "bufferView": 2,
      "byteOffset": 444,
      "componentType": 5126,
      "count": 37,
      "max": [
        0.28786930441856384,
        0.44874659180641174,
        1.0
      ],
      "min": [
        -0.4752565622329712,
        -0.35761508345603943,
        0.8767656087875366
      ],
      "type": "VEC3"
    },
    {
      "bufferView": 1,
      "componentType": 5126,
      "count": 37,
      "max": [
        0.533882737159729,
        0.843008816242218
      ],
      "min": [
        0.0317460298538208,
        0.07514552772045135
      ],
      "type": "VEC2"
    },
    {
      "bufferView": 0,
      "componentType": 5125,
      "count": 144,
      "type": "SCALAR"
    },
    {
      "bufferView": 2,
      "byteOffset": 888,
      "componentType": 5126,
      "count": 36,
      "max": [
        4.812404632568359,
        9.538352966308594,
        0.6215458512306213
      ],
      "min": [
        -0.23471404612064362,
        0.9285187721252441,
        -0.2827332615852356
      ],
      "type": "VEC3"
    },
    {
      "bufferView": 2,
      "byteOffset": 1320,
      "componentType": 5126,
      "count": 36,
      "max": [
        0.47525671124458313,
        0.4487464427947998,
        1.0
      ],
      "min": [
        -0.412326842546463,
        -0.423879474401474,
        0.8767654299736023
      ],
      "type": "VEC3"
    },
    {
      "bufferView": 1,
      "byteOffset": 296,
      "componentType": 5126,
      "count": 36,
      "max": [
        0.9682539701461792,
        0.8456160426139832
      ],
      "min": [
        0.5233678221702576,
        0.07514552772045135
      ],
      "type": "VEC2"
    },
    {
      "bufferView": 0,
      "byteOffset": 576,
      "componentType": 5125,
      "count": 138,
      "type": "SCALAR"
    }
  ],
  "asset": {
    "extras": {
      "author": "Hi-Mi (https://sketchfab.com/Hi-Mi)",
      "license": "CC-BY-4.0 (http://creativecommons.org/licenses/by/4.0/)",
      "source": "https://sketchfab.com/3d-models/broken-heart-0453925e3c11435ca4d77bff19f5c39d",
      "title": "Broken Heart"
    },
    "generator": "Sketchfab-15.36.0",
    "version": "2.0"
  },
  "bufferViews": [
    {
      "buffer": 0,
      "byteLength": 1128,
      "name": "floatBufferViews",
      "target": 34963
    },
    {
      "buffer": 0,
      "byteLength": 584,
      "byteOffset": 1128,
      "byteStride": 8,
      "name": "floatBufferViews",
      "target": 34962
    },
    {
      "buffer": 0,
      "byteLength": 1752,
      "byteOffset": 1712,
      "byteStride": 12,
      "name": "floatBufferViews",
      "target": 34962
    }
  ],
  "buffers": [
    {
      "byteLength": 3464,
      "uri": "scene.bin"
    }
  ],
  "images": [
    {
      "uri": "textures/heart_clr_baseColor.png"
    }
  ],
  "materials": [
    {
      "doubleSided": true,
      "name": "heart_clr",
      "pbrMetallicRoughness": {
        "baseColorTexture": {
          "index": 0
        },
        "metallicFactor": 0.0,
        "roughnessFactor": 0.6
      }
    }
  ],
  "meshes": [
    {
      "name": "heart_plane_heart_clr_0",
      "primitives": [
        {
          "attributes": {
            "NORMAL": 1,
            "POSITION": 0,
            "TEXCOORD_0": 2
          },
          "indices": 3,
          "material": 0,
          "mode": 4
        }
      ]
    },
    {
      "name": "heart_plane1_heart_clr_0",
      "primitives": [
        {
          "attributes": {
            "NORMAL": 5,
            "POSITION": 4,
            "TEXCOORD_0": 6
          },
          "indices": 7,
          "material": 0,
          "mode": 4
        }
      ]
    }
  ],
  "nodes": [
    {
      "children": [
        1
      ],
      "matrix": [
        1.0,
        0.0,
        0.0,
        0.0,
        0.0,
        2.220446049250313e-16,
        -1.0,
        0.0,
        0.0,
        1.0,
        2.220446049250313e-16,
        0.0,
        0.0,
        0.0,
        0.0,
        1.0
      ],
      "name": "Sketchfab_model"
    },
    {
      "children": [
        2
      ],
      "matrix": [
        1.0,
        0.0,
        0.0,
        0.0,
        0.0,
        0.0,
        1.0,
        0.0,
        0.0,
        -1.0,
        0.0,
        0.0,
        0.0,
        0.0,
        0.0,
        1.0
      ],
      "name": "f8ecbf8d2eaa4c84a2d67a6b8a9c43fd.fbx"
    },
    {
      "children": [
        3,
        5
      ],
      "name": "RootNode"
    },
    {
      "children": [
        4
      ],
      "matrix": [
        0.9920892300195387,
        0.1255346951214632,
        0.0,
        0.0,
        -0.1255346951214632,
        0.9920892300195387,
        0.0,
        0.0,
        0.0,
        0.0,
        1.0,
        0.0,
        -0.5357578992843628,
        0.008905349299311638,
        0.0,
        1.0
      ],
      "name": "heart_plane"
    },
    {
      "mesh": 0,
      "name": "heart_plane_heart_clr_0"
    },
    {
      "children": [
        6
      ],
      "matrix": [
        0.9870604848955707,
        -0.16034836811679984,
        0.0,
        0.0,
        0.16034836811679984,
        0.9870604848955707,
        0.0,
        0.0,
        0.0,
        0.0,
        1.0,
        0.0,
        -0.8198533058166504,
        0.030628250911831856,
        0.0,
        1.0
      ],
      "name": "heart_plane1"
    },
    {
      "mesh": 1,
      "name": "heart_plane1_heart_clr_0"
    }
  ],
  "samplers": [
    {
      "magFilter": 9729,
      "minFilter": 9987,
      "wrapS": 10497,
      "wrapT": 10497
    }
  ],
  "scene": 0,
  "scenes": [
    {
      "name": "Sketchfab_Scene",
      "nodes": [
        0
      ]
    }
  ],
  "textures": [
    {
      "sampler": 0,
      "source": 0
    }
  ]
}
